<svg xmlns="http://www.w3.org/2000/svg" width="960" height="620" viewBox="0 0 960 620" role="img" aria-label="짧은 게임 플레이 루프 이미지">
  <rect width="960" height="620" fill="#fbfdfb"/>
  <rect x="132" y="92" width="696" height="436" rx="18" fill="#ffffff" stroke="#cfded2" stroke-width="4"/>
  <g transform="translate(240 158)">
    <rect width="280" height="280" rx="14" fill="#eef6f1" stroke="#217346" stroke-width="5"/>
    <g fill="#ffffff" stroke="#cfded2" stroke-width="3">
      <rect x="20" y="20" width="110" height="110" rx="10"/>
      <rect x="150" y="20" width="110" height="110" rx="10"/>
      <rect x="20" y="150" width="110" height="110" rx="10"/>
      <rect x="150" y="150" width="110" height="110" rx="10"/>
    </g>
    <g font-family="Segoe UI, Arial" font-size="42" font-weight="800" fill="#217346" text-anchor="middle">
      <text x="75" y="88">2</text>
      <text x="205" y="88">4</text>
      <text x="75" y="218">8</text>
      <text x="205" y="218">16</text>
    </g>
  </g>
  <g fill="none" stroke="#2f66a1" stroke-width="12" stroke-linecap="round">
    <path d="M610 208h94"/>
    <path d="M704 208l-28-28"/>
    <path d="M704 208l-28 28"/>
    <path d="M704 360h-94"/>
    <path d="M610 360l28-28"/>
    <path d="M610 360l28 28"/>
  </g>
  <text x="656" y="298" text-anchor="middle" font-family="Segoe UI, Arial" font-size="46" font-weight="800" fill="#c58b2b">1-3 min</text>
</svg>
